<svg viewBox="0 0 15 20" fill="none" xmlns="http://www.w3.org/2000/svg"><path d="M13.7 10.37c-.18-.4-.43-.79-.79-1.24-.9-1.13-1.17-3.66-1.18-3.68a.3.3 0 00-.2-.26.31.31 0 00-.33.09c-1.08 1.2-.62 3.06-.38 3.8.07.2.14.44.2.68.39 1.96-.38 2.85-.56 3.03-.17.05-.29.03-.4-.1-.38-.4-.5-1.77-.33-3.54.04-.36.03-.69-.02-.99-.38-2.18-1.75-3.58-2.1-4.07C6.67 2.68 6.57.32 6.56.3a.3.3 0 00-.48-.24c-1.6 1.1-1.46 3.71-1.23 5.18.05.34.15.68.32 1.12.62 1.56-.12 3.57-.12 3.6l-.02.04c-.1.5-.25.8-.43.8l-.06-.01c-.21-.05-.33-.28-.33-.48-.01-2.58-2.6-3.45-2.63-3.46a.3.3 0 00-.33.1.3.3 0 00-.04.32c.03.07.13.35.06 1.33-.06.89-.22 1.76-.48 2.6a12.67 12.67 0 00-.51 4.01c.47 5.16 7.9 6.07 12.3 3.16.48-.32.88-.68 1.17-1.08 1.62-2.25.66-5.3-.05-6.91zM2.4 15.3a.3.3 0 01-.28.32H2.1a.3.3 0 01-.3-.29c-.04-.44-.03-.9 0-1.4a.3.3 0 01.33-.29c.17.02.3.16.28.33-.03.48-.04.91 0 1.33zm.15-2.68a.3.3 0 01-.3.26h-.04a.3.3 0 01-.27-.34l.15-1.17a.3.3 0 01.34-.26.3.3 0 01.27.34l-.15 1.17z" fill="#FF6B09"/></svg>