<svg aria-hidden="true" style="position:absolute;width:0;height:0" xmlns="http://www.w3.org/2000/svg" overflow="hidden"><defs><symbol id="icon-cross" viewBox="0 0 32 32"><path stroke="var(--color1, #fff)" stroke-width="3.76" d="M1.88 29.17L29.17 1.88M29.17 29.17L1.88 1.88"/></symbol><symbol id="icon-menu" viewBox="0 0 20 14" fill="none" xmlns="http://www.w3.org/2000/svg"><path d="M0 1h22M0 7h22M0 13h22" stroke="#000" stroke-width="2"/></symbol><symbol id="logo-dark" viewBox="0 0 88 32"><path fill="var(--color1, #111518)" d="M12.35 4.85v12.97H8.68v-5.06H3.67v5.06H0V4.85h3.67v4.87h5V4.85h3.68zM25.78 12.82l-.06.87h-7.3c.15.52.43.92.85 1.2.43.28.97.41 1.61.41.49 0 .9-.07 1.25-.2.35-.14.71-.36 1.07-.67l1.86 1.93c-.98 1.09-2.4 1.63-4.29 1.63-1.17 0-2.2-.22-3.1-.67s-1.58-1.06-2.07-1.85a5.06 5.06 0 01-.72-2.69c0-.99.23-1.87.7-2.65.48-.8 1.14-1.4 1.98-1.85s1.8-.67 2.84-.67c1 0 1.91.2 2.73.63.81.4 1.45 1 1.92 1.8.49.77.73 1.7.73 2.78zm-5.36-2.7c-.54 0-1 .15-1.37.46-.36.3-.59.72-.69 1.25h4.12a2 2 0 00-2.06-1.72zM28.14 4.07h3.52v13.75h-3.52V4.07zM34.7 4.07h3.52v13.75h-3.53V4.07zM3.33 29.8H1.47l-.35.85H.17l1.78-3.99h.91l1.79 4h-.97l-.35-.86zm-.3-.7l-.63-1.53-.63 1.53h1.27zM10.36 29.9v1.58H9.5v-.83H6.7v.83h-.86V29.9H6c.24 0 .4-.18.5-.52s.16-.83.19-1.47l.04-1.25H9.8v3.24h.56zM7.5 28c-.02.47-.06.87-.12 1.2-.06.31-.15.55-.28.7H8.9v-2.48H7.52L7.5 28zM13.9 30.72c-.41 0-.78-.08-1.11-.26a2.04 2.04 0 01-.78-.73c-.18-.32-.28-.68-.28-1.07s.1-.75.28-1.06c.2-.32.45-.56.78-.74.33-.18.7-.26 1.11-.26.35 0 .66.06.94.18.28.12.51.3.7.52l-.59.55c-.27-.31-.6-.47-1-.47-.25 0-.47.06-.67.17-.19.1-.34.25-.45.45-.1.2-.16.41-.16.66s.05.47.16.66c.1.2.26.35.45.46.2.1.42.16.67.16.4 0 .73-.16 1-.47l.6.54c-.2.24-.43.41-.71.53s-.6.19-.94.19zM18.72 29.05h-.64v1.6h-.92v-3.99h.92v1.62h.66l1.05-1.62h.97l-1.3 1.93 1.34 2.07h-1.05l-1.03-1.61zM22.26 26.66h.92v2.6l1.9-2.6h.87v4h-.9v-2.6l-1.91 2.6h-.88v-4zM27.98 26.66h.91v2.6l1.9-2.6h.88v4h-.92v-2.6l-1.9 2.6h-.88v-4zm1.84-.25c-.73 0-1.1-.3-1.1-.88h.62c.01.28.17.42.48.42.15 0 .26-.04.34-.1.08-.08.13-.18.13-.32h.63c0 .29-.1.5-.28.65s-.45.22-.82.22zM39.03 29.8h-1.85l-.36.85h-.94l1.77-3.99h.92l1.78 4h-.97l-.35-.86zm-.29-.7l-.63-1.53-.64 1.53h1.27zM45.57 26.66v4h-.92v-1.64h-1.82v1.64h-.92v-4h.92v1.58h1.82v-1.58h.92zM50.41 27.42h-1.9v3.23h-.91v-3.99h2.82l-.01.76zM55.07 26.66v4h-.91v-3.24h-1.37l-.03.83a8.58 8.58 0 01-.14 1.38c-.07.35-.2.62-.36.8a.9.9 0 01-.71.29c-.12 0-.28-.02-.46-.07l.06-.78c.05.02.1.03.17.03.22 0 .37-.13.46-.4.09-.25.14-.66.16-1.22l.06-1.62h3.07zM57.1 26.66H58v2.6l1.9-2.6h.87v4h-.91v-2.6l-1.9 2.6h-.88v-4zM62.8 26.66h.92v2.6l1.9-2.6h.87v4h-.91v-2.6l-1.9 2.6h-.88v-4zm1.84-.25c-.73 0-1.1-.3-1.1-.88h.63c0 .28.17.42.47.42.16 0 .27-.04.35-.1.08-.08.12-.18.13-.32h.63c0 .29-.1.5-.28.65s-.46.22-.83.22zM70.4 30.72c-.4 0-.78-.08-1.1-.26a2.03 2.03 0 01-.78-.73c-.19-.32-.28-.68-.28-1.07s.1-.75.28-1.06c.19-.32.45-.56.78-.74.33-.18.7-.26 1.1-.26.35 0 .66.06.94.18.28.12.52.3.7.52l-.58.55c-.27-.31-.6-.47-1-.47-.26 0-.48.06-.67.17-.2.1-.35.25-.46.45-.1.2-.16.41-.16.66s.06.47.16.66c.11.2.27.35.46.46.2.1.41.16.66.16.4 0 .74-.16 1-.47l.6.54c-.2.24-.43.41-.7.53s-.6.19-.95.19zM75.22 29.05h-.63v1.6h-.92v-3.99h.91v1.62h.67l1.05-1.62h.97l-1.3 1.93 1.34 2.07h-1.05l-1.04-1.61zM78.77 26.66h.92v2.6l1.9-2.6h.87v4h-.91v-2.6l-1.9 2.6h-.88v-4zM84.48 26.66h.92v2.6l1.9-2.6h.87v4h-.91v-2.6l-1.9 2.6h-.88v-4zm1.84-.25c-.73 0-1.1-.3-1.1-.88h.63c0 .28.17.42.47.42.16 0 .27-.04.35-.1.08-.08.12-.18.13-.32h.63c0 .29-.1.5-.28.65s-.46.22-.83.22zM73.15 14.99v2.83H62.74V4.85H72.9v2.83h-6.54v2.2h5.76v2.73h-5.76V15h6.78zM88.28 4.85v12.97h-3.03l-5.72-6.91v6.91h-3.6V4.85h3.02l5.73 6.91V4.85h3.6z"/><path fill="var(--color2, #ff6b09)" d="M57.55 11.09a6.18 6.18 0 00-.84-1.32c-.96-1.22-1.25-3.92-1.26-3.94a.32.32 0 00-.22-.28.33.33 0 00-.35.1c-1.15 1.28-.67 3.27-.4 4.06.07.22.15.47.2.73.43 2.1-.4 3.05-.59 3.24-.18.05-.31.03-.43-.1-.4-.44-.54-1.9-.35-3.8a3.9 3.9 0 00-.02-1.05c-.4-2.33-1.87-3.83-2.24-4.35C50.02 2.86 49.92.34 49.92.32a.33.33 0 00-.51-.26c-1.72 1.16-1.57 3.97-1.33 5.53.05.36.16.73.35 1.2.66 1.67-.13 3.82-.14 3.84l-.01.06c-.1.53-.28.85-.47.85a.2.2 0 01-.06-.01c-.23-.05-.35-.3-.35-.51-.02-2.77-2.8-3.7-2.82-3.7a.33.33 0 00-.4.45c.04.07.14.36.07 1.42-.06.94-.23 1.88-.51 2.78a13.57 13.57 0 00-.55 4.28c.5 5.52 8.44 6.49 13.16 3.38.51-.34.93-.73 1.24-1.16 1.74-2.4.72-5.65-.04-7.38zm-12.08 5.27a.32.32 0 01-.3.34h-.03a.33.33 0 01-.32-.3c-.03-.48-.03-.97.01-1.51a.33.33 0 01.35-.3c.18.01.32.17.3.35-.03.5-.04.97 0 1.42zm.16-2.87a.32.32 0 01-.32.29h-.04a.33.33 0 01-.29-.37l.16-1.25c.02-.17.18-.3.37-.28.18.02.3.18.28.36l-.16 1.25zM55.34 4.43a.32.32 0 01-.28-.37c.02-.13.14-.8.46-1.14.12-.13.33-.14.46-.02s.14.33.02.46c-.14.15-.25.56-.3.8-.02.18-.18.3-.36.27zM43.42 6.05a1.94 1.94 0 00-.36-.77c-.14-.12-.15-.32-.03-.46s.32-.15.46-.03c.35.3.53.97.57 1.1a.32.32 0 01-.24.4.33.33 0 01-.4-.24z"/></symbol><symbol id="logo-white" viewBox="0 0 88 32"><path fill="var(--color3, #fff)" d="M12.35 4.85v12.97H8.68v-5.06H3.67v5.06H0V4.85h3.67v4.87h5V4.85h3.68zM25.78 12.82l-.06.87h-7.3c.15.52.43.92.85 1.2.43.28.97.41 1.61.41.49 0 .9-.07 1.25-.2.35-.14.71-.36 1.07-.67l1.86 1.93c-.98 1.09-2.4 1.63-4.29 1.63-1.17 0-2.2-.22-3.1-.67s-1.58-1.06-2.07-1.85a5.06 5.06 0 01-.72-2.69c0-.99.23-1.87.7-2.65.48-.8 1.14-1.4 1.98-1.85s1.8-.67 2.84-.67c1 0 1.91.2 2.73.63.81.4 1.45 1 1.92 1.8.49.77.73 1.7.73 2.78zm-5.36-2.7c-.54 0-1 .15-1.37.46-.36.3-.59.72-.69 1.25h4.12a2 2 0 00-2.06-1.72zM28.14 4.07h3.52v13.75h-3.52V4.07zM34.7 4.07h3.52v13.75h-3.53V4.07zM3.33 29.8H1.47l-.35.85H.17l1.78-3.99h.91l1.79 4h-.97l-.35-.86zm-.3-.7l-.63-1.53-.63 1.53h1.27zM10.36 29.9v1.58H9.5v-.83H6.7v.83h-.86V29.9H6c.24 0 .4-.18.5-.52s.16-.83.19-1.47l.04-1.25H9.8v3.24h.56zM7.5 28c-.02.47-.06.87-.12 1.2-.06.31-.15.55-.28.7H8.9v-2.48H7.52L7.5 28zM13.9 30.72c-.41 0-.78-.08-1.11-.26a2.04 2.04 0 01-.78-.73c-.18-.32-.28-.68-.28-1.07s.1-.75.28-1.06c.2-.32.45-.56.78-.74.33-.18.7-.26 1.11-.26.35 0 .66.06.94.18.28.12.51.3.7.52l-.59.55c-.27-.31-.6-.47-1-.47-.25 0-.47.06-.67.17-.19.1-.34.25-.45.45-.1.2-.16.41-.16.66s.05.47.16.66c.1.2.26.35.45.46.2.1.42.16.67.16.4 0 .73-.16 1-.47l.6.54c-.2.24-.43.41-.71.53s-.6.19-.94.19zM18.72 29.05h-.64v1.6h-.92v-3.99h.92v1.62h.66l1.05-1.62h.97l-1.3 1.93 1.34 2.07h-1.05l-1.03-1.61zM22.26 26.66h.92v2.6l1.9-2.6h.87v4h-.9v-2.6l-1.91 2.6h-.88v-4zM27.98 26.66h.91v2.6l1.9-2.6h.88v4h-.92v-2.6l-1.9 2.6h-.88v-4zm1.84-.25c-.73 0-1.1-.3-1.1-.88h.62c.01.28.17.42.48.42.15 0 .26-.04.34-.1.08-.08.13-.18.13-.32h.63c0 .29-.1.5-.28.65s-.45.22-.82.22zM39.03 29.8h-1.85l-.36.85h-.94l1.77-3.99h.92l1.78 4h-.97l-.35-.86zm-.29-.7l-.63-1.53-.64 1.53h1.27zM45.57 26.66v4h-.92v-1.64h-1.82v1.64h-.92v-4h.92v1.58h1.82v-1.58h.92zM50.41 27.42h-1.9v3.23h-.91v-3.99h2.82l-.01.76zM55.07 26.66v4h-.91v-3.24h-1.37l-.03.83a8.58 8.58 0 01-.14 1.38c-.07.35-.2.62-.36.8a.9.9 0 01-.71.29c-.12 0-.28-.02-.46-.07l.06-.78c.05.02.1.03.17.03.22 0 .37-.13.46-.4.09-.25.14-.66.16-1.22l.06-1.62h3.07zM57.1 26.66H58v2.6l1.9-2.6h.87v4h-.91v-2.6l-1.9 2.6h-.88v-4zM62.8 26.66h.92v2.6l1.9-2.6h.87v4h-.91v-2.6l-1.9 2.6h-.88v-4zm1.84-.25c-.73 0-1.1-.3-1.1-.88h.63c0 .28.17.42.47.42.16 0 .27-.04.35-.1.08-.08.12-.18.13-.32h.63c0 .29-.1.5-.28.65s-.46.22-.83.22zM70.4 30.72c-.4 0-.78-.08-1.1-.26a2.03 2.03 0 01-.78-.73c-.19-.32-.28-.68-.28-1.07s.1-.75.28-1.06c.19-.32.45-.56.78-.74.33-.18.7-.26 1.1-.26.35 0 .66.06.94.18.28.12.52.3.7.52l-.58.55c-.27-.31-.6-.47-1-.47-.26 0-.48.06-.67.17-.2.1-.35.25-.46.45-.1.2-.16.41-.16.66s.06.47.16.66c.11.2.27.35.46.46.2.1.41.16.66.16.4 0 .74-.16 1-.47l.6.54c-.2.24-.43.41-.7.53s-.6.19-.95.19zM75.22 29.05h-.63v1.6h-.92v-3.99h.91v1.62h.67l1.05-1.62h.97l-1.3 1.93 1.34 2.07h-1.05l-1.04-1.61zM78.77 26.66h.92v2.6l1.9-2.6h.87v4h-.91v-2.6l-1.9 2.6h-.88v-4zM84.48 26.66h.92v2.6l1.9-2.6h.87v4h-.91v-2.6l-1.9 2.6h-.88v-4zm1.84-.25c-.73 0-1.1-.3-1.1-.88h.63c0 .28.17.42.47.42.16 0 .27-.04.35-.1.08-.08.12-.18.13-.32h.63c0 .29-.1.5-.28.65s-.46.22-.83.22zM73.15 14.99v2.83H62.74V4.85H72.9v2.83h-6.54v2.2h5.76v2.73h-5.76V15h6.78zM88.28 4.85v12.97h-3.03l-5.72-6.91v6.91h-3.6V4.85h3.02l5.73 6.91V4.85h3.6z"/><path fill="var(--color2, #ff6b09)" d="M57.55 11.09a6.18 6.18 0 00-.84-1.32c-.96-1.22-1.25-3.92-1.26-3.94a.32.32 0 00-.22-.28.33.33 0 00-.35.1c-1.15 1.28-.67 3.27-.4 4.06.07.22.15.47.2.73.43 2.1-.4 3.05-.59 3.24-.18.05-.31.03-.43-.1-.4-.44-.54-1.9-.35-3.8a3.9 3.9 0 00-.02-1.05c-.4-2.33-1.87-3.83-2.24-4.35C50.02 2.86 49.92.34 49.92.32a.33.33 0 00-.51-.26c-1.72 1.16-1.57 3.97-1.33 5.53.05.36.16.73.35 1.2.66 1.67-.13 3.82-.14 3.84l-.01.06c-.1.53-.28.85-.47.85a.2.2 0 01-.06-.01c-.23-.05-.35-.3-.35-.51-.02-2.77-2.8-3.7-2.82-3.7a.33.33 0 00-.4.45c.04.07.14.36.07 1.42-.06.94-.23 1.88-.51 2.78a13.57 13.57 0 00-.55 4.28c.5 5.52 8.44 6.49 13.16 3.38.51-.34.93-.73 1.24-1.16 1.74-2.4.72-5.65-.04-7.38zm-12.08 5.27a.32.32 0 01-.3.34h-.03a.33.33 0 01-.32-.3c-.03-.48-.03-.97.01-1.51a.33.33 0 01.35-.3c.18.01.32.17.3.35-.03.5-.04.97 0 1.42zm.16-2.87a.32.32 0 01-.32.29h-.04a.33.33 0 01-.29-.37l.16-1.25c.02-.17.18-.3.37-.28.18.02.3.18.28.36l-.16 1.25zM55.34 4.43a.32.32 0 01-.28-.37c.02-.13.14-.8.46-1.14.12-.13.33-.14.46-.02s.14.33.02.46c-.14.15-.25.56-.3.8-.02.18-.18.3-.36.27zM43.42 6.05a1.94 1.94 0 00-.36-.77c-.14-.12-.15-.32-.03-.46s.32-.15.46-.03c.35.3.53.97.57 1.1a.32.32 0 01-.24.4.33.33 0 01-.4-.24z"/></symbol><symbol id="arrow-left" viewBox="0 0 54 32"><path fill="var(--color2, #ff6b09)" d="M52 14a2 2 0 110 4v-4zM.59 17.41a2 2 0 010-2.82L13.3 1.86a2 2 0 112.83 2.83L4.83 16l11.31 11.31a2 2 0 11-2.83 2.83L.6 17.41zM52 18H2v-4h50v4z"/></symbol><symbol id="arrow-right" viewBox="0 0 54 32"><path fill="var(--color2, #ff6b09)" d="M2 14a2 2 0 100 4v-4zm51.41 3.41a2 2 0 000-2.82L40.7 1.86a2 2 0 10-2.83 2.83L49.17 16 37.86 27.31a2 2 0 102.83 2.83L53.4 17.41zM2 18h50v-4H2v4z"/></symbol><symbol id="border" viewBox="0 0 31 32"><path fill="none" stroke-width="1.02" d="M30.39 4.95V.75H.5v30.48h29.88v-4.18" stroke="var(--color1, #ff6b09)"/></symbol><symbol id="finance-warranty" viewBox="0 0 27 32"><path d="M.53 13.8c0 .34-.53.34-.53 0a13.4 13.4 0 0126.81 0c0 .34-.52.34-.52 0 0-5-8.22-5.01-8.22 0 0 .34-.54.34-.54 0 0-5-8.24-5-8.24 0 0 .34-.54.34-.54 0 0-4.99-8.22-5.02-8.22 0zm8.27-1.95c.14-2.88.6-5.46 1.25-7.43.52-1.57 1.19-2.76 1.94-3.43A12.89 12.89 0 00.74 11.45c1.95-2.8 6.44-2.58 8.05.4zm8.68-.13a27.8 27.8 0 00-1.21-7.13c-1.64-4.9-4.09-4.9-5.72 0a27.88 27.88 0 00-1.22 7.13c1.76-2.98 6.4-2.98 8.15 0zm8.6-.27A12.88 12.88 0 0014.81 1c.76.67 1.42 1.86 1.94 3.43a28.66 28.66 0 011.26 7.43c1.62-3 6.13-3.17 8.05-.4zM11.65 19.93v-2.72c-.5.33-.88.83-.88 1.44 0 .6.4 1 .88 1.28zm.53.85c-.94-.43-1.93-.94-1.93-2.13 0-1.22.93-1.84 1.93-2.3v4.43zM15.17 24.04v2.75c.5-.33.88-.83.88-1.45 0-.6-.4-1.01-.88-1.3zm-.53-.85c.94.44 1.94.96 1.94 2.15 0 1.23-.94 1.85-1.94 2.3V23.2z"/><path d="M15.17 14.11c2.16.5 4.39 2.12 4.39 4.54 0 2.08-3.5 2-3.5 0 0-.61-.4-1.12-.9-1.45v3.88c2.01.65 4.4 1.83 4.4 4.26 0 2.43-2.22 4.05-4.4 4.54 0 2.31-3.5 2.3-3.51 0a6.47 6.47 0 01-3.09-1.62 4.09 4.09 0 01-1.29-2.92c0-2.04 3.5-2.04 3.5 0 0 .61.39 1.12.88 1.44v-3.87c-2-.64-4.4-1.85-4.4-4.26 0-2.43 2.23-4.05 4.4-4.54 0-2.31 3.51-2.3 3.52 0zm-3 0v.43c-2.05.4-4.39 1.73-4.39 4.1 0 2.3 2.56 3.32 4.4 3.89v5.11c-1-.45-1.93-1.06-1.93-2.3 0-1.35-2.45-1.35-2.45 0 0 .96.42 1.84 1.13 2.54.91.9 2.01 1.32 3.25 1.57v.42c0 1.63 2.46 1.63 2.46 0v-.42c2.07-.41 4.4-1.73 4.4-4.1 0-2.32-2.56-3.31-4.4-3.9v-5.1c1 .45 1.94 1.06 1.94 2.3 0 1.31 2.45 1.37 2.45 0 0-2.38-2.32-3.7-4.39-4.11v-.42c0-1.63-2.46-1.63-2.46 0z"/></symbol><symbol id="mobile-study" viewBox="0 0 32 32"><path d="M29.46.26H14.09c-1 0-1.82.81-1.82 1.81v6.36L.85 13.23a.37.37 0 00-.04.66l1.45.87v9.29c-.74.17-1.3.83-1.3 1.63v.9c0 .2.16.37.37.37h2.6c.21 0 .38-.17.38-.37v-.9c0-.8-.56-1.46-1.3-1.63v-8.84l1.15.69c-.04.26 0-.47-.02 4.32 0 1.57 4.03 2.42 8.13 2.46v7.25a1.81 1.81 0 001.81 1.81h15.38c1 0 1.81-.8 1.81-1.8V2.06c0-.98-.82-1.81-1.81-1.81zM3.56 25.68v.52H1.7v-.52a.93.93 0 111.87 0zM29.46 31H14.09a1.07 1.07 0 01-1.07-1.07v-2.51h17.5v2.51c0 .58-.48 1.07-1.06 1.07zm1.06-4.32h-17.5v-4c2-.02 8.13-.46 8.13-2.46v-4.33l3.33-2a.37.37 0 00-.05-.66l-11.41-4.8v-3.1h17.5v21.35zm-17.88-8.93c-2.06 0-6.03.27-7.76 1.4.01-3.45-.12-3.23.3-3.52 1.08-.79 4.15-1.34 7.46-1.34 1.45 0 7.77.4 7.77 1.73v3.12c-1.74-1.13-5.7-1.4-7.77-1.4zm.38-15.68c0-.59.48-1.07 1.06-1.07h15.38c.58 0 1.06.49 1.06 1.07v2.51h-17.5v-2.5zm-.38 7.01l10.83 4.55-2.68 1.6c-1.43-1.41-6.15-1.69-8.15-1.69s-6.72.28-8.14 1.7l-2.68-1.61 10.82-4.55zM4.88 20.22c0-.6 2.67-1.73 7.76-1.73 5.1 0 7.77 1.13 7.77 1.73s-2.67 1.73-7.77 1.73-7.76-1.13-7.76-1.73z"/></symbol><symbol id="student" viewBox="0 0 27 32"><path d="M-.1 31.36h26.78c.13-3.05-.08-8.12-1.96-10.54l-.07-.08-4.1-2.06c.08-.3.13-.58.15-.78.02-.24-.02-.47-.1-.68a5.69 5.69 0 00-2.9-2.83c.24-.49.4-1 .47-1.54.44-.12.8-.48.92-.95l.48-1.95a1.31 1.31 0 00-.45-1.33c1.36-3.07-.9-5.96-1.03-6.11a6.6 6.6 0 00-5.7-2.13c-4.47.94-6.2 4.36-5.23 8.37-.28.32-.4.77-.3 1.2l.48 1.95c.12.47.48.82.92.95.14.97.55 1.85 1.15 2.56v1.54c-6.4 3.28-2.35 1.19-7.48 3.79-.01.05-2.41 2.6-2.06 10.16l.03.46zm25.85-.97h-4.4v-1.85l2.9-6.68c1.47 2.43 1.52 7.06 1.5 8.53zm-6.02-12.57c-.17 1.95-1.24 1.36-1.9 2.86a2.22 2.22 0 01-.53-1.99c.25-1.35-.57-1.75-.37-3.16l.03-.04.23-.27c1.74.76 2.58 2.17 2.55 2.6zm-9.35-1.54a4.96 4.96 0 005.57.07c.12 1.12.55 1.34.4 2.16l-.06.45-3 3.39-3.84-4.33.93-.49v-1.25zm-1.2-4.14v-1.88-3.3a4.2 4.2 0 011.89-1.86 26.67 26.67 0 016.2 4.8l-.01 2.48v.01a4.05 4.05 0 01-8.09-.25zm-.6 6.35l4.71 5.31 3.17-3.56c.07.2.17.4.29.59l-3.46 4.32-5.15-6.44.43-.22zm9.65-7.13v-1.5l.36-.41c.02.76.1-.14-.36 1.9zM12.56 1.33c.2.02 2.77-.39 4.8 1.8.08.1 1.74 2.24 1.07 4.58-.23-1.04-.62-2.37-1.25-3l-.69.67c.62.63 1.03 2.54 1.18 3.53-2.84-2.97-6.5-4.85-6.55-4.88-.18.11-1.73.4-2.86 2.6l-.05.1v1.6h-.15c-.71-3.45.66-6.19 4.5-7zm-4.6 8l.25 1v1.03l-.4-1.64c-.07-.24.11-.33.15-.38zm-.7 9.82l6.03 7.55 4.08-5.1c.45.39.66.45 1.6.93l-.31-1.08c-.09-.27.23-.71.43-.91.43-.24.79-.57 1.05-.98l3.34 1.67-3.1 7.1v2.06H6.2v-2.06l-3.1-7.1 4.15-2.08zm-4.94 2.71l2.92 6.68v1.85H.83c-.02-1.47.03-6.1 1.49-8.52z"/></symbol><symbol id="audio-book" viewBox="0 0 39 32"><path d="M3.05 29.45h12.23a3.74 3.74 0 003.38 2.12h.77c1.47 0 2.76-.83 3.38-2.12h12.24a2.29 2.29 0 002.28-2.28V5.27a2.29 2.29 0 00-2.28-2.3H33.8V1.96c0-.84-.68-1.52-1.52-1.52H5.79c-.83 0-1.52.68-1.52 1.52v1.03H3.05A2.29 2.29 0 00.76 5.26v21.9a2.29 2.29 0 002.29 2.3zm29.24-4.7H19.8V7.05a5.9 5.9 0 015.12 5.83v.68l-.18-.04c-.2-.04-.4 0-.57.1s-.3.29-.34.49l-1.21 5.51c-.1.41.17.82.58.91l2.62.58a1.96 1.96 0 002.32-1.5l.7-3.18a1.95 1.95 0 00-1.48-2.33l-.92-.2v-1.02a7.42 7.42 0 00-6.64-7.37V1.96H32.3v22.8zm-7.12-9.57l1.87.4c.23.06.37.28.32.52l-.7 3.19a.45.45 0 01-.5.33l-1.88-.41.88-4.03zM5.8 1.96h12.48V5.5a7.42 7.42 0 00-6.65 7.37v1.02l-.91.2a1.94 1.94 0 00-1.48 2.32l.7 3.2a1.96 1.96 0 002.32 1.49l2.61-.58c.41-.1.67-.5.58-.9l-1.21-5.53a.76.76 0 00-.9-.58l-.18.04v-.69a5.9 5.9 0 015.12-5.83v17.7H5.8V1.96zm7.12 13.22l.88 4.03-1.86.4a.43.43 0 01-.51-.32l-.7-3.2a.42.42 0 01.32-.5l1.87-.42zM2.29 5.26c0-.42.34-.76.76-.76h1.22v20.25c0 .84.69 1.53 1.53 1.53h26.49c.84 0 1.52-.69 1.52-1.53V4.5h1.24c.42 0 .76.34.76.76v21.9c0 .43-.34.77-.76.77H22.29a.76.76 0 00-.72.54 2.22 2.22 0 01-2.14 1.57h-.77c-.98 0-1.84-.63-2.14-1.58a.76.76 0 00-.72-.53H3.05a.76.76 0 01-.76-.76V5.27z"/></symbol><symbol id="book" viewBox="0 0 46 32"><path d="M20.27 4.6H6.63v1.03h13.64V4.6zM20.27 8.42H8.67v1.02h11.6V8.42zM20.27 12.22H6.63v1.02h13.64v-1.02zM20.27 16.03H8.67v1.02h11.6v-1.02zM20.27 19.84H6.63v1.02h13.64v-1.02zM20.27 23.65H8.67v1.02h11.6v-1.02zM38.99 4.6H25.35v1.03h13.64V4.6zM36.95 8.42h-11.6v1.02h11.6V8.42zM38.99 12.22H25.35v1.02h13.64v-1.02zM36.95 16.03h-11.6v1.02h11.6v-1.02zM38.99 19.84H25.35v1.02h13.64v-1.02zM36.95 23.65h-11.6v1.02h11.6v-1.02z"/><path d="M43.91 3.44h-1.87V.65a.51.51 0 00-.5-.52H26.26c-1.5 0-2.78.8-3.46 2.01a3.95 3.95 0 00-3.46-2H4.08a.51.51 0 00-.5.5v2.81H1.7a.51.51 0 00-.5.52v27.4c0 .29.22.52.5.52h42.21c.29 0 .52-.23.52-.51V3.96a.51.51 0 00-.51-.52zm-17.64-2.3h14.75V28.5H25.18a3 3 0 00-1.86.68V4.08c0-1.62 1.3-2.94 2.95-2.94zm-21.67 0h14.75c1.6 0 2.89 1.25 2.94 2.83v25.21a3 3 0 00-1.84-.69H4.6V1.14zM2.2 4.47h1.37V29c0 .28.22.5.5.5h16.37c.78 0 1.53.52 1.77 1.35h-20V4.46zm41.2 26.39H23.4c.24-.84.99-1.34 1.78-1.34h16.35c.28 0 .51-.23.51-.52V4.47h1.37v26.39z"/></symbol><symbol id="note" viewBox="0 0 31 32"><path d="M30.15 4.96a.32.32 0 00-.06-.1l-4.8-4.8a.26.26 0 00-.05-.03L25.2 0 25.19 0a.28.28 0 00-.1-.02H3.9a.28.28 0 00-.28.28v29.37l.01.02v.03l.02.03.02.02c0 .02.02.03.03.04l2.17 2.17c.1.11.29.11.4 0l1.96-1.96 1.97 1.96c.05.06.13.08.2.08s.14-.02.2-.08l1.96-1.96 1.97 1.96c.1.11.29.11.4 0l1.96-1.96 1.97 1.96c.1.11.29.11.4 0l1.96-1.96 1.97 1.96c.05.06.12.08.2.08s.14-.02.2-.08l1.96-1.96 1.97 1.96c.1.11.29.11.4 0l2.16-2.16.01-.02.03-.03.01-.03.01-.02.01-.03v-.02l.01-.06V5.07a.3.3 0 00-.02-.1zM25.37.95l3.83 3.83h-3.83V.95zm4.23 28.5l-1.88 1.89-1.96-1.97a.28.28 0 00-.4 0l-1.96 1.97-1.97-1.97a.28.28 0 00-.4 0l-1.97 1.97-1.96-1.97a.28.28 0 00-.4 0l-1.96 1.97-1.97-1.97a.28.28 0 00-.4 0l-1.96 1.97-1.97-1.97a.28.28 0 00-.4 0l-1.96 1.97-1.88-1.88V.55h20.6v4.52c0 .16.13.28.28.28h4.52v24.1z"/><path d="M6.31 3.23h9.3a.28.28 0 100-.56h-9.3a.28.28 0 100 .56zM6.31 5h14.92a.28.28 0 100-.58H6.31a.28.28 0 100 .57zM6.03 6.57v9.2c0 .15.13.28.28.28H27.5c.15 0 .28-.13.28-.28v-9.2a.28.28 0 00-.28-.29H6.3a.28.28 0 00-.28.29zm6.28.28h14.9V9.3H12.3V6.85zm0 3.02h14.9v2.44H12.3V9.87zm0 3h14.9v2.61H12.3v-2.6zM6.6 6.86h5.14V9.3H6.6V6.85zm0 3.02h5.14v2.44H6.6V9.87zm0 3h5.14v2.61H6.6v-2.6zM27.49 17.33H6.3a.28.28 0 00-.28.28v9.2a.28.28 0 10.57 0v-2.89h5.14v2.9a.28.28 0 10.57 0v-2.9h14.9v2.9a.28.28 0 10.56 0v-9.2a.28.28 0 00-.28-.3zm-15.75 6.02H6.6v-2.44h5.14v2.44zm0-3H6.6V17.9h5.14v2.44zm15.46 3H12.3v-2.44h14.9v2.44zm0-3H12.3V17.9h14.9v2.44zM2.28-.02A.28.28 0 002 .26v29.31a.28.28 0 10.56 0V.27a.28.28 0 00-.28-.3zM.72-.02a.28.28 0 00-.29.28v29.31a.28.28 0 10.57 0V.27a.28.28 0 00-.28-.3z"/></symbol><symbol id="support" viewBox="0 0 33 32"><path d="M2 12.56v2.83c0 .15.06.3.18.39a11.1 11.1 0 009.04 2.14 12.01 12.01 0 009.78 0 11 11 0 009.05-2.14.5.5 0 00.19-.4v-2.82c0-.42-.21-.8-.58-1.03L25.8 9.35a7.85 7.85 0 001.59-3.9 4.19 4.19 0 00-7.11-3.43l-.09.08-.06.08-.05.05a4.37 4.37 0 00-4.41-2.2h-.03c-.1 0-.29.02-.4.05L15.2.1a4.48 4.48 0 00-3.02 2.15A4.18 4.18 0 009 .8C5.1.8 3.36 5.4 6.45 9.38l-3.9 2.16c-.35.22-.56.6-.56 1.02zm19 4.27l-.26.12a11 11 0 01-9.25 0c-.71-.32-1.4-.73-2.05-1.22v-2.87c0-.1.05-.18.1-.22l4.55-2.53c.56.48 1.28.84 2.03.84.72 0 1.5-.36 2.05-.85l4.49 2.52c.08.06.13.14.13.24v2.87c-.57.43-1.17.8-1.8 1.1zm8.15-4.45c.06.04.1.1.1.18v2.58a9.99 9.99 0 01-6.74 1.98c.37-.23.77-.51 1.08-.76a.5.5 0 00.2-.39v-3.1c0-.44-.23-.84-.62-1.1l-2.38-1.34.58-.32c.7.58 1.3.75 1.85.75.66 0 1.36-.33 1.87-.76l4.06 2.28zm-5.93-10.6c1.38 0 2.59.91 3.02 2.15A3.7 3.7 0 0124 2.79a.5.5 0 00-.79.08 3.68 3.68 0 01-2.55 1.76 4.79 4.79 0 00-.16-1.33c.56-.9 1.61-1.51 2.71-1.51zm-2.66 3.86a4.64 4.64 0 003.16-1.76 4.68 4.68 0 002.7 1.06c0 1.79-1.47 4.92-3.2 4.92-1.34 0-2.48-1.9-2.9-3.23.1-.34.18-.67.24-.99zm.1 3.73l-.89.5-.9-.5c.34-.42.64-.9.9-1.42.25.52.55 1 .89 1.42zm-1.34-2.9c-.48 1.42-1.7 3.49-3.2 3.49-1.74 0-3.22-2.87-3.5-4.7.07-.02 2.42.13 4.04-2a5.17 5.17 0 003.01 1.19 6.3 6.3 0 01-.35 2.01zM16.15.98c2.78 0 3.3 2.4 3.35 2.44-1-.1-1.93-.6-2.56-1.27a.5.5 0 00-.79.09 4.07 4.07 0 01-3.58 2.02A3.51 3.51 0 0116.15.99zm-3.69 6.95c.26.51.56 1 .91 1.44l-.87.48-.9-.5c.34-.44.63-.94.86-1.42zM9.01 1.79c1.12 0 2.15.57 2.73 1.51l-.12.55A3.68 3.68 0 019.8 2.79a.5.5 0 00-.8.08A3.71 3.71 0 015.84 4.7a3.2 3.2 0 013.18-2.9zM5.88 5.68a4.71 4.71 0 003.64-1.8c.6.5 1.3.81 2.05.96.03.58.18 1.28.35 1.8a6.8 6.8 0 01-1.45 2.5h-.01c-.4.44-.99.73-1.45.73-1.59 0-2.84-2.51-3.13-4.2zm-2.9 6.88c0-.08.04-.14.07-.16l4.12-2.29c.24.2.3.23.35.27.48.32.93.48 1.53.48.65 0 1.24-.27 1.75-.7l.1-.06.58.33-2.45 1.36c-.36.23-.58.63-.58 1.07v3.11c0 .15.07.3.19.4.32.24.73.53 1.08.75-2.43.17-4.8-.52-6.74-1.98v-2.58z"/><path d="M31.26 20.78a2.06 2.06 0 00-2-.1l-6.13 2.95a2.11 2.11 0 00-2.1-2.07h-3.51a9.8 9.8 0 00-5.96-2.48 251.9 251.9 0 00-4.59-.06v-1H0v11.52h6.97v-1.38C8.88 29.26 13.91 32 16.3 32h.15c4.2-.24 14.1-7.2 14.75-7.66a2.08 2.08 0 00.06-3.56zM5.98 28.54H.99v-9.53h4.99v9.53zm24.7-5.06a.3.3 0 00-.04.03c-.1.07-10.28 7.27-14.24 7.5h-.12c-2.1 0-7.2-2.75-9.3-4v-7c.82 0 2.59.02 4.56.06 1.84.05 3.88.93 5.46 2.35l.14.13h3.88a1.12 1.12 0 010 2.24h-7.14v.99h7.14a2.1 2.1 0 001.68-.84l6.98-3.37c.35-.17.73-.15 1.05.05s.5.54.5.92c0 .4-.2.75-.54.95zM16.61 12.16h-.99v.92h1v-.92zM16.61 14h-.99v.91h1V14zM16.61 15.83h-.99v.92h1v-.92z"/></symbol><symbol id="handset" viewBox="0 0 30 29"><path d="M4.37 0c-.49.03-.96.23-1.3.61L.62 3.3c0-.01-.01-.01-.08.09a.6.6 0 00-.08.16c-1 3.16-.33 6.63 1.29 9.93 1.61 3.3 4.2 6.45 7.15 9.04 2.96 2.6 6.3 4.62 9.49 5.63 3.18 1 6.27.99 8.56-.67a.6.6 0 00.07-.06l.05-.06.01-.01 2.42-2.66A1.9 1.9 0 0029.4 22l-5.75-5.22a1.9 1.9 0 00-2.66.12l-2.6 2.86a13.93 13.93 0 01-5.64-3.22 13.93 13.93 0 01-3.75-5.32l2.6-2.86a1.9 1.9 0 00-.12-2.66L5.72.49C5.34.14 4.85-.02 4.37 0zm.05 1.17a.7.7 0 01.5.2l5.75 5.22c.3.26.32.7.05.99l-2.87 3.16a.59.59 0 00-.12.6 15.13 15.13 0 004.21 6.08c1.93 1.76 4 2.98 6.46 3.62a.59.59 0 00.59-.17l2.87-3.16c.27-.3.7-.31 1-.04l5.73 5.22c.3.27.32.7.05 1l-2.4 2.63c-1.88 1.35-4.52 1.42-7.49.49-2.97-.94-6.2-2.88-9.06-5.39a28.9 28.9 0 01-6.87-8.67C1.3 9.86.75 6.74 1.59 3.99L3.93 1.4a.7.7 0 01.49-.24z" fill="#FF6B09"/></symbol><symbol id="icon-circle-up" viewBox="0 0 32 32"><path d="M0 16a16 16 0 1032 0 16 16 0 00-32 0zm29 0a13 13 0 11-26 0 13 13 0 0126 0z"/><path d="M22.09 20.91l2.82-2.82-8.9-8.92-8.92 8.92L9.9 20.9l6.1-6.08z"/></symbol></defs></svg>